<mxfile host="app.diagrams.net" modified="2024-07-12T17:30:50.154Z" agent="Mozilla/5.0 (Macintosh; Intel Mac OS X 10.15; rv:122.0) Gecko/20100101 Firefox/122.0" version="24.6.5" etag="08Y-GswwG66D5MIQXdZJ" type="github">
  <diagram name="PÃ¡gina-1" id="PiwHEH2oR5nT-EE8kPY_">
    <mxGraphModel>
      <root>
        <mxCell id="0" />
        <mxCell id="1" parent="0" />
      </root>
    </mxGraphModel>
  </diagram>
</mxfile>
